<svg width="64" height="64" viewBox="0 0 64 64" fill="none" xmlns="http://www.w3.org/2000/svg">
  <rect width="64" height="64" rx="8" fill="#050507"/>
  <rect x="7" y="7" width="50" height="50" rx="4" fill="#2a0710" stroke="#f6a5bd" stroke-opacity="0.55" stroke-width="2"/>
  <path d="M17 44V20H23V29.2L31.3 20H38.7L29 30.4L39.4 44H31.8L24.8 34.7L23 36.6V44H17Z" fill="#F7F3ED"/>
  <path d="M41.8 44C38.4 44 35.7 42.9 33.7 40.7C31.8 38.5 30.8 35.6 30.8 32C30.8 28.4 31.8 25.5 33.8 23.3C35.9 21.1 38.7 20 42.2 20C45 20 47.3 20.7 49 22.2C50.8 23.7 51.9 25.7 52.3 28.2H46.2C45.7 26.3 44.4 25.4 42.3 25.4C40.6 25.4 39.3 26 38.4 27.1C37.5 28.2 37 29.8 37 32C37 34.2 37.5 35.9 38.5 37C39.4 38.1 40.8 38.7 42.5 38.7C43.8 38.7 44.9 38.4 45.7 37.8C46.5 37.2 47 36.4 47.1 35.4H42.4V30.8H52.8V44H48.5L47.9 41.5C46.5 43.2 44.5 44 41.8 44Z" fill="#F6A5BD"/>
</svg>
